<svg xmlns="http://www.w3.org/2000/svg" viewBox="0 0 60 40"><path fill="#fff" d="M0 0h60v40H0z"/><path fill="#005DAA" d="M0 13.333h60V40H0z"/><path fill="#ED1C24" d="M0 26.667h60V40H0z"/><path d="M12 7.5h12v9.7c0 5.1-6 7.4-6 7.4s-6-2.3-6-7.4z" fill="#005DAA" stroke="#ED1C24" stroke-width=".9"/><path d="M14.6 16.5 18 11l3.4 5.5H14.6z" fill="#fff"/><path d="M14 18.1c2 .9 6 .9 8 0M14.5 20.1c1.8.8 5.2.8 7 0" fill="none" stroke="#fff" stroke-width="1"/><g fill="#FFCC00"><path d="m18 8.2.55 1.1 1.2.17-.87.84.2 1.19L18 10.94l-1.08.56.2-1.19-.87-.84 1.2-.17z"/><path d="m15.2 10.2.43.88.97.14-.7.68.17.96-.87-.45-.86.45.16-.96-.7-.68.97-.14z"/><path d="m20.8 10.2.43.88.97.14-.7.68.17.96-.87-.45-.86.45.16-.96-.7-.68.97-.14z"/></g></svg>
